<?xml version="1.0" encoding="UTF-8"?>
<!DOCTYPE svg PUBLIC "-//W3C//DTD SVG 1.1//EN" "http://www.w3.org/Graphics/SVG/1.1/DTD/svg11.dtd">
<!-- Creator: CorelDRAW 2020 (64 Bit) -->
<svg xmlns="http://www.w3.org/2000/svg" xml:space="preserve" width="297mm" height="210mm" version="1.1" style="shape-rendering:geometricPrecision; text-rendering:geometricPrecision; image-rendering:optimizeQuality; fill-rule:evenodd; clip-rule:evenodd"
viewBox="0 0 29700 21000"
 xmlns:xlink="http://www.w3.org/1999/xlink"
 xmlns:xodm="http://www.corel.com/coreldraw/odm/2003">
 <defs>
  <style type="text/css">
   <![CDATA[
    .fil1 {fill:black}
    .fil0 {fill:white}
   ]]>
  </style>
 </defs>
 <g id="Camada_x0020_1">
  <metadata id="CorelCorpID_0Corel-Layer"/>
  <g id="_1717305344368">
   <path class="fil0" d="M17872.13 5185.95c47.82,12.75 93.04,53.63 130.02,83.42 122.35,98.51 253.24,192.03 364.5,304.3 312.41,315.24 554.77,586.73 776.45,987.98 319.02,577.47 577.53,1406.68 524.85,2100.01 -11.52,151.49 -5.08,248.55 -27.03,413.25 -41.93,314.58 -109.49,599.62 -213.99,895.88 -18.81,53.31 -49.2,117.56 -60.71,166.99 -216.18,-18 -324.13,-118.64 -589.43,65.11 -97.71,67.66 -151.41,147.88 -191.73,263.6 -62.1,178.25 -9.14,368.74 91.92,517.07 37.46,54.97 72.63,72.23 105.84,121.81 -66.23,98.91 -156.75,185.86 -237.56,274.7 -4.01,4.44 -19.31,21.65 -20.15,22.54l-337.69 316.87c-407.87,330.34 -889.88,591.45 -1396.66,737.75l-469.33 114.06c-195.09,32.82 -504.63,73.78 -700.8,64.45l-155.64 -0.5c-320.4,-16.52 -666.22,-61.58 -988.73,-154.57 -358.99,-103.49 -626.16,-229.51 -944.29,-393.27 -45.04,-23.19 -79.19,-58.35 -127.86,-71.34 -12.77,47.83 -59.01,102.9 -85.38,142.28 36.96,24.76 58.24,42.2 102.14,68.64l358.12 182.58c88.13,42.17 151.75,71.62 246.97,108.76 502.29,196.01 806.69,230.08 1346.38,288.34 127.64,13.79 319.72,16.95 454.26,-1.91 10.22,-1.43 24.95,-3.67 53.64,-5.11 281.27,-14.19 599.94,-59.23 866.02,-145.02l343.42 -111.92c178.89,-58.52 366.8,-145.66 530.9,-237.5 259.2,-145.08 488.49,-308.05 721.24,-488.25l459.69 -451c52.64,-57.25 102.08,-107.64 137.83,-175.2 222.58,51.85 288.23,96.1 526.86,-28.09 335.47,-174.61 353.63,-702.59 42.32,-911.05 15.71,-67.48 38.2,-100.25 63.31,-164.37l59.73 -167.94c41.13,-122.44 73.33,-245.08 101.83,-367.73 44.39,-191.05 72.65,-402.43 98.57,-598.67 38.59,-292.45 7.75,-781.2 -44.84,-1071.61 -129.43,-714.74 -413.69,-1382.33 -862,-1955.42 -167.54,-214.19 -358.33,-424.11 -571.26,-595.54 -90.36,-72.75 -315.36,-292.98 -410.57,-300.92 -19.68,73.72 -63.83,68.49 -71.16,156.54z"/>
   <path class="fil0" d="M12393.83 5612.83c-149.75,-79.24 -179.02,-132.01 -408.55,-135.88 -235.52,-3.97 -477.35,176.53 -525.32,412.18 -53.68,263.67 66.24,491.7 279.31,634.37 -747.99,1413.62 -624.66,3152.59 347.5,4504.71 72.39,100.67 138.71,174.17 213.45,270.38l232.28 251.51c47.78,48.29 83.12,68.45 128.4,113.51 49.12,48.91 77.29,69.36 127.68,114.22 57.14,50.85 218.71,193.56 288.26,209.76 19.68,-73.7 63.81,-68.49 71.14,-156.52 -98.37,-26.27 -554.09,-476.41 -615.48,-537.1 -335.53,-331.62 -635.44,-849.98 -813.6,-1292.36 -194.9,-483.97 -294.87,-1042.73 -293.02,-1572.08l30 -410.75c22.54,-281.67 162.27,-825.13 292.78,-1101.69 27.9,-59.11 42,-98.59 71.26,-156.42l75.87 -166.01c336.01,161.22 1000.58,-273.29 611.87,-853.77l426.88 -398.42c268.75,-209.9 555.13,-401.11 868.18,-540.53 440.5,-196.22 709.64,-254.99 1165.74,-327.22 183.61,-29.08 308.97,-22.61 480.9,-35.58 167.43,-12.66 399.37,8.87 563,28.81 382.68,46.62 757.18,148.04 1113.86,297.1 44.28,18.5 76.74,34.12 117.52,53.22l372.27 182.69c16.84,-63.07 65.51,-88.72 71.15,-156.52l-205.12 -107.93c-475.4,-212.63 -676.62,-313.74 -1223.8,-412.58 -241.36,-43.58 -775.69,-90.52 -999.13,-56.16l-374.34 35.62c-444.48,68.88 -1040.08,249.61 -1423.13,470.5 -26.14,15.07 -48,29.07 -79.78,48.3 -34.84,21.09 -60.62,32.62 -90.93,51.38l-832.11 661.95c-2.07,2.08 -5.08,5.03 -7.11,7.13l-27.24 29.68c-16.07,19.17 -17.53,20.9 -30.64,40.5z"/>
   <path class="fil0" d="M18725.9 13794.73l0 1294.88c0,41.9 -12.52,90.43 -28.52,113.76 -36.61,53.34 -52.89,20.98 -71.08,71.21l369.96 0c-19.41,-72.72 -8.5,-16.79 -52.43,-61.39 -23.3,-23.63 -32.94,-38.76 -32.94,-80.89l0 -654.56c589.82,0 554.94,-43.7 554.94,654.56 0,105.56 -63.47,60.3 -85.37,142.28l369.96 0c-24.66,-68.12 -45.15,-11.95 -80.93,-89.81 -86.43,-188.12 119.65,-564.04 -189.12,-707.35 -100.72,-46.74 -181.74,-42.37 -327.59,-42.37 18.77,-16.3 -8.47,4.66 23.45,-19.24 214.11,-160.25 157.03,-195.51 310.88,-272.53 45.14,-22.61 32.4,15.66 49.86,-49.73l-241.89 0c-21.97,41.51 -26.84,64.16 -44.62,111.91 -86,230.97 -150.01,229.59 -339.57,229.59l0 -654.56c0,-61.66 -27.82,-137.84 -68.1,-159.56 -48.3,-26.01 -152.25,-11.19 -216.49,-11.19 20.52,56.69 99.6,27.5 99.6,184.99z"/>
   <path class="fil0" d="M11298.15 14008.17c64.42,-17.19 39.8,-42.13 113.61,-185.21 26.05,-50.47 81.65,-139.29 137.51,-161.3 72.25,-28.49 477.05,-9.23 588.43,-9.23l-816.44 1531.41c-44.65,57.63 -64.35,32.09 -80.01,90.74l1023.81 0.81c189.69,16.8 137.47,76.47 177.46,-208.23 9.73,-69.33 22.45,-120.05 22.45,-190.99l-28.45 0c-18.66,80.06 -131.98,344.58 -270.1,355.99 -179.88,14.87 -437.84,-0.27 -626.36,-0.27 19.3,-82.85 360.79,-691.7 426.99,-825.19 40.45,-81.58 330.07,-641.92 383.65,-712 43.73,-57.21 55.61,-25.13 71.58,-84.96l-811.13 0.05c-108.04,0.4 -160.97,-14.27 -256.07,-14.27 -2.83,126.66 -54.1,286 -56.93,412.65z"/>
   <path class="fil0" d="M13930.6 14292.75c0,-76.16 -15.06,-150.67 -59.51,-182.4 -44.84,-32 -155.83,-16.8 -225.09,-16.8 13.15,36.28 6.05,14.92 33.45,37.71 21.8,18.13 66.16,35.98 66.16,147.27 0,162.29 25.11,846.67 -28.52,924.84 -32.78,47.8 -7.47,8.22 -37.64,33.5 -27.31,22.9 -20.29,1.39 -33.45,37.71l369.98 0c-21.9,-81.98 -85.38,-36.72 -85.38,-142.28l0 -654.56c0,-384.88 554.95,-444.34 554.95,-14.24l0 668.8c0,105.56 -63.5,60.3 -85.38,142.28l369.96 0c-20.49,-56.57 -1.21,-6.52 -50.13,-49.46 -24.02,-21.08 -27.41,-25.88 -38.47,-61.14 -19.09,-60.84 -11.01,-515.49 -11.01,-600.86 0,-274.05 16.86,-483.81 -398.41,-483.81 -183.51,0 -268.92,129.93 -341.51,213.44z"/>
   <path class="fil0" d="M15282.39 14008.17l28.45 0c16.78,-72 60.34,-158.27 96.64,-216.42 107.93,-172.85 124.92,-139.32 415.62,-139.32l0 1437.18c0,41.9 -12.52,90.43 -28.52,113.76 -36.6,53.34 -52.89,20.98 -71.07,71.21l384.19 0c-26.32,-72.67 -85.38,-31.48 -85.38,-128.06l0 -1494.09c323.02,0 320.9,-37.68 464.72,260.98 25.54,53.08 23.93,80.86 76,94.76 -19.33,-82.96 -56.93,-321.67 -56.93,-412.65 -99.37,0 -138.85,14.22 -241.89,14.22l-697.25 0c-103.04,0 -142.5,-14.22 -241.89,-14.22 0,150.64 -42.69,256.17 -42.69,412.65z"/>
   <path class="fil0" d="M16776.48 14221.61c0,-33.39 30.84,-74.6 54.42,-87.86 72.82,-40.96 224.51,-23.01 283.84,5.73 42.4,20.52 74.38,67.68 74.38,124.82l0 683.01c0,324.33 -473.58,383.72 -577.13,164.48 -176.75,-374.27 321,-459.03 321,-577.13 0,-171.25 -156.51,-182.97 -156.51,-313.05zm-384.2 754.15c0,260.5 243.16,313.06 455.34,313.06 182.88,0 256.66,-87.38 341.5,-184.99l0 170.75 284.6 0c-34.72,-95.91 -100.43,39.31 -99.63,-298.8 0.32,-137.54 0.02,-275.12 0.02,-412.66 0,-143.46 22.5,-284.77 -46.01,-366.65 -165.51,-197.78 -813.45,-137.92 -668.68,83.95 52.23,80.04 247.99,140.7 241.56,238.23 -9.68,147.14 -508.7,148.03 -508.7,457.11z"/>
   <path class="fil0" d="M17872.13 14221.61c0,-140.3 250.67,-124.55 338.28,-82.13 42.39,20.52 74.39,67.68 74.39,124.82l0 683.01c0,324.33 -473.61,383.72 -577.15,164.48 -176.75,-374.27 321.02,-459.03 321.02,-577.13 0,-171.25 -156.54,-182.97 -156.54,-313.05zm-384.19 754.15c0,260.5 243.17,313.06 455.35,313.06 182.89,0 256.65,-87.38 341.51,-184.99l0 170.75 284.58 0c-34.72,-95.91 -100.43,39.31 -99.63,-298.8 0.34,-137.54 0.02,-275.12 0.02,-412.66 0,-143.46 22.5,-284.77 -46,-366.65 -165.51,-197.78 -813.46,-137.92 -668.69,83.95 52.23,80.04 247.99,140.7 241.57,238.23 -9.69,147.14 -508.71,148.03 -508.71,457.11z"/>
   <path class="fil0" d="M12678.41 14762.32c0,-417.44 60.23,-640.32 412.65,-640.32 234.03,0 341.5,190.85 341.5,426.88 -61.02,1.36 -580.66,94.64 -676.87,162.67 -45.8,32.37 -21.74,35.95 -77.28,50.77zm-184.99 -85.37c0,238.88 114.77,457.23 303.14,550.62 336.28,166.76 713.38,-34.18 764.07,-251.81 -101.19,27.03 -101.01,256.13 -498.03,256.13 -212.85,0 -504.91,-374.26 -256.85,-498.74 100.17,-50.27 259.36,-75.78 386.83,-96.98l410.74 -73.05c0,-92.79 -14.32,-130.04 -46.93,-194.98 -24.55,-48.97 -62.9,-107.62 -98.48,-143.4 -285.64,-287.31 -964.49,-163.36 -964.49,452.21z"/>
  </g>
  <g id="_1717305345664">
   <path class="fil1" d="M14876.25 8669.07c75.7,40.06 221.28,181.32 273.38,251.55 129.21,174.18 252.97,420.2 260.01,654.4 1.52,50.55 12.35,78.89 8.23,126.34 -9.85,113.45 -23.04,236.51 -57.88,340.45 -10.73,32.03 -28.37,71.97 -35.01,100.46 -62.75,-5.22 -121.88,-30.61 -193.09,35.51 -54.45,50.57 -57.85,144.8 -21.59,204.58 19.15,31.58 28.21,23.76 36.88,56.25 -13.99,20.89 -22.78,25.68 -40.28,44.38 -18.03,19.26 -20.07,27.37 -37.85,46.81l-192.8 154.34 -168.97 93.5c-367.82,163.83 -826.16,141.51 -1151.83,-76.57 -11.28,16.84 -15.41,23.46 -25.4,42.34 63.68,86.91 435.37,194.73 601.13,194.73 262.84,0 462.69,-24.34 685.44,-152.76 65.91,-38 149.15,-91.2 205.54,-141.59 31.66,-28.29 59.52,-49.82 89.22,-80.12 19.32,-19.69 21.58,-26.75 38.36,-46.3 20.63,-24.03 31.38,-21.91 39.78,-53.36 71.08,8.44 127.43,24.75 194.21,-34.39 82.48,-73.02 59.4,-202.71 -16.41,-253.48 67.46,-127.5 101.6,-338.94 101.6,-516.47 0,-340.89 -137.77,-624.13 -345.12,-848.68l-101.58 -101.62c-17.65,-15.73 -36.49,-29.4 -56.38,-45.22 -23.04,-18.31 -33.54,-30.27 -64.19,-37.41 -11.28,16.84 -15.41,23.46 -25.4,42.33z"/>
   <path class="fil1" d="M13250.65 8796.07c-32.99,-17.46 -69.14,-42.33 -118.53,-42.33 -171.07,0 -221.87,236.19 -76.2,313.27 -197.42,373.09 -193.95,862.07 26.93,1226.13 45.97,75.78 100.31,159.25 161.38,219.62 43.01,42.53 156.07,165.55 209.62,179.85 11.28,-16.84 15.41,-23.46 25.4,-42.34 -448.57,-300.38 -644.2,-964.58 -423.33,-1456.26 16.79,-37.38 31.54,-55.3 42.33,-101.6 34.79,2.89 18.91,8.46 50.8,8.46 119.09,0 224,-103.61 135.47,-270.93 77.55,-51.93 164.62,-177.22 370.08,-264.92 348.71,-148.84 741.51,-163.51 1086.32,19.25 24.28,12.87 37.56,27 67.6,34 6.12,-26.27 10.81,-24.52 16.93,-50.8 -262.06,-138.66 -398.53,-169.33 -711.2,-169.33 -181.45,0 -378.39,65.83 -499.57,126.97 -102.3,51.62 -302.08,178.45 -364.03,270.96z"/>
  </g>
 </g>
</svg>
