<?xml version="1.0" encoding="UTF-8" standalone="no"?>
<!-- Creator: CorelDRAW 2020 (64 Bit) -->

<svg
   xml:space="preserve"
   width="76.411003mm"
   height="76.411003mm"
   version="1.1"
   style="clip-rule:evenodd;fill-rule:evenodd;image-rendering:optimizeQuality;shape-rendering:geometricPrecision;text-rendering:geometricPrecision"
   viewBox="0 0 7641.1004 7641.1003"
   id="svg52"
   sodipodi:docname="isologo.svg"
   inkscape:version="1.2.2 (b0a8486, 2022-12-01)"
   xmlns:inkscape="http://www.inkscape.org/namespaces/inkscape"
   xmlns:sodipodi="http://sodipodi.sourceforge.net/DTD/sodipodi-0.dtd"
   xmlns="http://www.w3.org/2000/svg"
   xmlns:svg="http://www.w3.org/2000/svg"><sodipodi:namedview
   id="namedview54"
   pagecolor="#ffffff"
   bordercolor="#000000"
   borderopacity="0.25"
   inkscape:showpageshadow="2"
   inkscape:pageopacity="0.0"
   inkscape:pagecheckerboard="0"
   inkscape:deskcolor="#d1d1d1"
   inkscape:document-units="mm"
   showgrid="false"
   inkscape:zoom="0.83936172"
   inkscape:cx="210.27883"
   inkscape:cy="107.82002"
   inkscape:window-width="1920"
   inkscape:window-height="763"
   inkscape:window-x="0"
   inkscape:window-y="25"
   inkscape:window-maximized="0"
   inkscape:current-layer="_1717279997504" />
 <defs
   id="defs4">
  <style
   type="text/css"
   id="style2">
   <![CDATA[
    .fil1 {fill:black}
    .fil2 {fill:#FEFEFE}
    .fil0 {fill:white}
   ]]>
  </style>
 </defs>
 <g
   id="Camada_x0020_1"
   inkscape:label="Camada 1"
   inkscape:groupmode="layer">
  <metadata
   id="CorelCorpID_0Corel-Layer" />
  
  <g
   id="_1717279997504"
   transform="translate(-2644.4119,2295.1315)">
   <path
   class="fil1"
   d="m 10229.903,2418.0909 c 266.48,-1184.83 -20.94,-2304.91993 -736.119,-3235.30993 -154.01,-200.31997 -638.31,-709.89007 -862.1,-787.27007 l -60.29,99.85 107.59,101 c 544.77,377.9501 1040.6,1057.63007 1275.45,1704.58007 148.749,409.78 235.519,872.83993 224.359,1354.09993 -17.36,747.62 -165.18,838.69 -268.039,1314.33 -296.14,-55.36 -534.25,-27.29 -664.31,195.68 -192.28,329.62 78.01,572.3 136.59,654.2 -63.36,144.38 -474.4,514.35 -630.07,635.21 -993.99,771.75 -2423.25,960.6 -3609.44,479.37 -216.2,-87.73 -387.51,-202.3 -573.54,-280.65 l -65.55,108.55 c 152.99,183.92 948.65,447.51 1268.38,511.99 994.36,200.55 2003.46,-10.96 2830.95,-535.36 340.13,-215.54 710.88,-550.01 914.84,-837.04 291.21,59.57 526.269,6.95 644.989,-201.88 153.8,-270.59 13.39,-474.67 -129.64,-644.39 36.95,-181.48 145.56,-412.93 195.95,-636.96 z"
   id="path26" />
   <path
   class="fil1"
   d="m 3659.784,-1097.0291 c -312.33,-127.02 -535.87,-192.7 -751.47,89.4801 -205.64,269.17997 -26.08,622.66997 168.97,716.86997 -155.31,488.39 -317.63,574.5 -405.03,1338.05993 -112.55,983.11 158.02,1927.19 710.34,2692.11 123.84,171.52 257.69,330.05 397.23,469.2 90.41,90.13 361.1,347.83 491.32,399.42 l 60.23,-99.22 -431.65,-394.59 c -432.22,-415.76 -746.99,-934.12 -944.23,-1553.09 -142.28,-446.45 -192.29,-969.5 -141.32,-1467.43 55.99,-547.08993 203.81,-858.51993 391.18,-1299.27993 279.81,0.93 428.59,-2.23 569.09,-190.99 172.82,-232.18 49.16,-395.4 -11.16,-601.46 339.97,-278.39007 351.44,-375.15007 872.14,-677.40007 935.36,-542.94 2139.96,-616.44 3161.06,-221.55 132.02,51.05 460.18,229.74 546.19,240.12 l 52.59,-100.94 c -186.29,-177.69 -840.85,-391.52 -1148.52,-455.36 -885.44,-183.71 -1896.22,-49.34 -2669.72,403.01 -349.87,204.58 -705.1,468.47 -917.24,713.04 z"
   id="path28" />
   
   
   
   
   
   
   
   
   
   
  </g>
 </g>
</svg>
