<?xml version="1.0" encoding="UTF-8" standalone="no"?>
<!-- Creator: CorelDRAW 2020 (64 Bit) -->

<svg
   width="237.01mm"
   height="76mm"
   clip-rule="evenodd"
   fill-rule="evenodd"
   image-rendering="optimizeQuality"
   shape-rendering="geometricPrecision"
   text-rendering="geometricPrecision"
   version="1.1"
   viewBox="0 0 23701 7600"
   xml:space="preserve"
   id="svg26"
   sodipodi:docname="logo.svg"
   inkscape:version="1.2.2 (b0a8486, 2022-12-01)"
   xmlns:inkscape="http://www.inkscape.org/namespaces/inkscape"
   xmlns:sodipodi="http://sodipodi.sourceforge.net/DTD/sodipodi-0.dtd"
   xmlns="http://www.w3.org/2000/svg"
   xmlns:svg="http://www.w3.org/2000/svg"><sodipodi:namedview
   id="namedview28"
   pagecolor="#ffffff"
   bordercolor="#000000"
   borderopacity="0.25"
   inkscape:showpageshadow="2"
   inkscape:pageopacity="0.0"
   inkscape:pagecheckerboard="0"
   inkscape:deskcolor="#d1d1d1"
   inkscape:document-units="mm"
   showgrid="false"
   inkscape:zoom="0.82160088"
   inkscape:cx="-85.808088"
   inkscape:cy="-143.01348"
   inkscape:window-width="1920"
   inkscape:window-height="1027"
   inkscape:window-x="0"
   inkscape:window-y="25"
   inkscape:window-maximized="1"
   inkscape:current-layer="g24" />
 <defs
   id="defs4">
  <style
   type="text/css"
   id="style2">
   <![CDATA[
    .fil1 {fill:black}
    .fil2 {fill:#FEFEFE}
    .fil0 {fill:white}
   ]]>
  </style>
 </defs>
 
  
  
  <g
   transform="translate(-2644.4 2295.1)"
   id="g24">
   <path
   class="fil1"
   d="m10230 2418.1c266.48-1184.8-20.94-2304.9-736.12-3235.3-154.01-200.32-638.31-709.89-862.1-787.27l-60.29 99.85 107.59 101c544.77 377.95 1040.6 1057.6 1275.4 1704.6 148.75 409.78 235.52 872.84 224.36 1354.1-17.36 747.62-165.18 838.69-268.04 1314.3-296.14-55.36-534.25-27.29-664.31 195.68-192.28 329.62 78.01 572.3 136.59 654.2-63.36 144.38-474.4 514.35-630.07 635.21-993.99 771.75-2423.2 960.6-3609.4 479.37-216.2-87.73-387.51-202.3-573.54-280.65l-65.55 108.55c152.99 183.92 948.65 447.51 1268.4 511.99 994.36 200.55 2003.5-10.96 2831-535.36 340.13-215.54 710.88-550.01 914.84-837.04 291.21 59.57 526.27 6.95 644.99-201.88 153.8-270.59 13.39-474.67-129.64-644.39 36.95-181.48 145.56-412.93 195.95-636.96z"
   id="path6" />
   <path
   class="fil1"
   d="m3659.8-1097c-312.33-127.02-535.87-192.7-751.47 89.48-205.64 269.18-26.08 622.67 168.97 716.87-155.31 488.39-317.63 574.5-405.03 1338.1-112.55 983.11 158.02 1927.2 710.34 2692.1 123.84 171.52 257.69 330.05 397.23 469.2 90.41 90.13 361.1 347.83 491.32 399.42l60.23-99.22-431.65-394.59c-432.22-415.76-746.99-934.12-944.23-1553.1-142.28-446.45-192.29-969.5-141.32-1467.4 55.99-547.09 203.81-858.52 391.18-1299.3 279.81 0.93 428.59-2.23 569.09-190.99 172.82-232.18 49.16-395.4-11.16-601.46 339.97-278.39 351.44-375.15 872.14-677.4 935.36-542.94 2140-616.44 3161.1-221.55 132.02 51.05 460.18 229.74 546.19 240.12l52.59-100.94c-186.29-177.69-840.85-391.52-1148.5-455.36-885.44-183.71-1896.2-49.34-2669.7 403.01-349.87 204.58-705.1 468.47-917.24 713.04z"
   id="path8" />
   <path
   class="fil1"
   d="m24352 56.071c89.18 98.92 150.55 85.11 167.34 248.9l-2.56 2492.2c-28.49 196.62-116.16 114.36-164.81 232.33l659.25 1.68c-96.03-227.54-170.34 150.13-170.22-638.4 0.03-267.44 0-534.88 0-802.32 440.04 0.03 901.75-106.23 992.19 331.38 27.68 133.88 50.48 830.8 3.31 943.6-46.16 110.38-96.25 45.1-146.95 166.5l659.14-9.09c-70.71-161.87-172.31 81.86-170.62-477.2 1.2-398.11 78.97-797.38-345.52-953.08-223.15-81.83-350.98-37.79-561.53-77.92 202-82.02 390.64-379.24 510.27-461.98 97.09-67.15 148.14-35.26 177.21-137.31l-419.89 0.06c-110.39 353.75-222.13 703.24-697.73 598.53 0.12-326.88-0.82-653.83 0.18-980.72 1.32-433.31-24.61-539.27-489.06-477.14z"
   id="path10" />
   
   
   <path
   class="fil1"
   d="m11639 2965.7c80.27-237.21 278.78-538.73 388.51-764.05 260.13-534.3 675.77-1269.7 967.49-1834.5 134.06-259.62 199.92-207.78 234.46-313.11-491.13-34.36-1246 10.26-1895.3-20.79l-97.99 719.73c193.99-146.31 152.47-639.82 625.46-639.88l868 0.78c-63.43 193.76-284.41 571.83-391.61 768.68l-774.09 1467.1c-72.36 132.41-119.24 239.3-193.37 367.53-176.64 305.65-204.04 179.38-247.73 312.42 662.5 0 1440.7-36.32 2085.4 20.31 16.82-82.89 116.31-625.29 79.91-718.02-175.16 205.8-185.24 589.34-508.4 629.74-289.19 36.14-825.63 4.31-1140.8 4.07z"
   id="path12" />
   <path
   class="fil1"
   d="m15436 922.07c81.8 101.82 110.42 51.99 151.15 164.28 36.68 101.12 19.29 765.03 19.29 898.83 0 1318.4-57.32 775.06-170.47 1044.3l659.22 1.68c-42.06-99.73-5.38-18.14-90.32-94.47-30.65-27.56-49.67-46.57-63.69-91.01-30.21-95.7-16.07-855.03-16.25-987.86-1.53-1100.1 784.66-893.87 945.95-576.03 113.85 224.35 71.88 976 72.96 1263.8 2.05 536.56-89.84 292.23-170.29 486.38l659.02-9.15c-55.66-127.66-162.47-5.21-170.66-322.95-8.69-338.2 35.84-1259-39.71-1464.3-185.15-503.05-1099.5-423.29-1253.8 53.55-32.07-39.9-13.66-9.24-35.62-67.64-17.27-45.91-3.55-7.49-12.49-43.98-13.54-55.36-7.91-167.52-91.73-228.78-79.58-58.13-271.71-42.69-392.51-26.66z"
   id="path14" />
   <path
   class="fil1"
   d="m18380 752.24c99.97-133.8 143.24-346.51 278.27-503.89 160.24-186.78 370.42-135.33 667.1-135.33l-9.26 2705.7c-36.8 181.42-112.53 93.3-161.21 210.97l678.45-0.09c-44.35-105.51-143.84-87.31-165.83-237.68l-4.64-2669.3c867.57-128.2 700.05 382.43 957.95 631.36 15.41-135.6-61.43-555.85-85.95-716.96-271.05-30.63-1482.8 42.36-2085.1-7.52-10.98 137.53-116.71 644.63-69.77 722.8z"
   id="path16" />
   <path
   class="fil1"
   d="m23157 961.97c766.12-216.35 588.34 610.75 588.37 1074.1 0 285.65 29.84 552.69-137.04 741.3-125.19 141.47-350.39 246.38-618.88 181.12-231.67-56.32-367.66-229.92-349.82-512.85 39.08-620.53 921.01-502.35 543.27-980.79-21.72-27.5-412.9-393.65-25.9-502.92zm1077.2 2060.9c-60.86-139.42-169.29 10.95-171.1-374.52-1.95-412.06 72.54-1376-99.58-1556.6-276.32-289.88-1229-282.3-1200.3 76.63 10.35 129.61 177.6 209.98 271.05 267.62 749.57 462.52-788 371.69-711.34 1135.6 30.84 307.16 332.01 459.63 645.54 480.51 245.05 16.34 474.97-36.04 640.54-196.43l118.09-126.97c2.76-10.26 11.01-10.35 17.54-15.25l0.57 315.28z"
   id="path18" />
   <path
   class="fil1"
   d="m21196 962.06c766.22-216.14 588.16 609.67 588.19 1074 0 285.46 29.97 552.75-137.01 741.36-292.23 330.11-1007.2 277.13-968.72-331.79 39.23-620.5 921.36-502.92 543.27-980.79-23.05-29.12-412.55-393.71-25.73-502.83zm1077.1 2060.8c-61.62-139.93-169.27 11.07-171.16-374.49-2.05-412.6 72.6-1375.6-99.65-1556.6-277.61-291.63-1228.9-280.34-1200.3 76.63 10.35 129.4 177.66 210.01 271.11 267.65 749.45 462.19-787.9 371.66-711.33 1135.5 47.87 477.56 907.8 705.5 1346.2 216.57l75.42-74.59 0.48 315.19z"
   id="path20" />
   
   <path
   class="fil1"
   d="m13702 2139.6c-21.99-526.33 28.76-1059.8 486.08-1163.9 595.62-135.57 834.65 240 872.38 759.35-230.49 23.62-528.83 95.98-760.4 141.62-409.21 80.66-364.92 86.19-598.06 262.95zm1544.5 364.68c-122.37 108.28-129.71 188.67-294.37 303.9-382.22 267.44-963.88 218.25-1163.4-329.96-154.86-425.33 205.82-484.27 563.52-551.54 328.54-61.8 663.19-128.35 995.38-178.83 12.18-246.89-187.2-536.81-301.95-628.27-591.53-471.72-1535.7-204.41-1655.1 662.05-136.89 993.16 721.39 1494.7 1412.4 1184.1 152.96-68.75 438.9-286.31 443.6-461.47z"
   id="path22" />
  </g>
 
</svg>
